<?xml version="1.0" encoding="UTF-8"?>
<svg version="1.1" xmlns="http://www.w3.org/2000/svg" width="50" height="50">
<path d="M0 0 C10.89 0 21.78 0 33 0 C33 8.99941228 33 8.99941228 30.1484375 12.65625 C29.54386719 13.45160156 28.93929687 14.24695313 28.31640625 15.06640625 C27.35541016 16.27103516 27.35541016 16.27103516 26.375 17.5 C25.75753906 18.30308594 25.14007813 19.10617188 24.50390625 19.93359375 C23.33341062 21.45400597 22.15521317 22.96854854 20.96630859 24.47460938 C18.26311194 27.946408 15.64004485 31.4799402 13 35 C19.6 35.33 26.2 35.66 33 36 C33 38.64 33 41.28 33 44 C21.78 44 10.56 44 -1 44 C-1 35.01244168 -1 35.01244168 3.3125 29.875 C4.22280974 28.76444871 5.13295982 27.65376654 6.04296875 26.54296875 C6.76299072 25.68517822 6.76299072 25.68517822 7.49755859 24.81005859 C9.55348371 22.33319333 11.53100557 19.79825742 13.5090332 17.2590332 C15.6627063 14.49820585 17.83302126 11.75039609 20 9 C13.4 8.67 6.8 8.34 0 8 C0 5.36 0 2.72 0 0 Z " fill="#000000" transform="translate(9,3)"/>
</svg>
